<svg width="24" height="24" viewBox="0 0 24 24" fill="none" xmlns="http://www.w3.org/2000/svg">
<path d="M2.57143 8.67777L11.7034 13.4272C11.795 13.4748 11.8968 13.4997 12 13.4997C12.1032 13.4997 12.205 13.4748 12.2966 13.4272L21.4286 8.67862V16.9286C21.4286 17.6402 21.1564 18.3248 20.6677 18.842C20.179 19.3592 19.511 19.6698 18.8006 19.7101L18.6429 19.7143H5.35714C4.6456 19.7144 3.96101 19.4421 3.4438 18.9535C2.9266 18.4648 2.616 17.7967 2.57572 17.0863L2.57143 16.9286V8.67777ZM5.35714 4.28577H18.6429C19.3544 4.28572 20.039 4.55796 20.5562 5.04663C21.0734 5.5353 21.384 6.20336 21.4243 6.91377L21.4286 7.07148V7.2292L12 12.1321L2.57143 7.2292V7.07148C2.57138 6.35993 2.84362 5.67534 3.33229 5.15814C3.82096 4.64094 4.48902 4.33034 5.19943 4.29005L5.35714 4.28577H18.6429H5.35714Z" fill="white"/>
</svg>
