<svg width="427" height="66" viewBox="0 0 427 66" fill="none" xmlns="http://www.w3.org/2000/svg">
<g filter="url(#filter0_d_2_506)">
<g clip-path="url(#clip0_2_506)">
<path d="M97.3227 55.832H91.0987V34.328C91.0987 32.2267 89.12 28.0133 84.4053 28.0133C80.864 28.0133 78.1387 31.2613 78.1387 34.6267C78.1387 37.592 80.8427 41.2933 85.6693 41.2933C87.3333 41.2933 88.5493 40.5733 88.5493 40.5733V46.5893C88.5493 46.5893 87.0667 47.2667 84.88 47.2667C80.3947 47.2667 78.1173 45.912 75.408 43.432C73.152 41.3627 71.8027 36.9893 71.8027 34.552C71.8027 32.12 73.0667 27.928 75.1413 25.896C77.216 23.8693 80.1013 21.704 84.6987 21.704C89.296 21.704 92.272 24.3173 94.2133 26.2587C97.28 29.32 97.3227 35.9547 97.3227 35.9547V55.832ZM118.016 29.3627V13.8213H124.24V16.4347C124.24 16.4347 126.624 14.584 129.963 13.4587C133.296 12.3333 137.536 11.88 137.536 11.88V15.3093C137.536 15.3093 139.296 14.9893 140.96 14.856C142.629 14.7227 144.747 14.7653 144.747 14.7653V19.1867C144.747 19.1867 143.669 19.1867 142.539 19.2293C141.419 19.272 139.744 19.544 139.744 19.544L144.795 20.984L144.843 25.768L147.813 21.8907L152.635 23.512L149.797 19.4053L164 1.96533V8.77067L155.211 19.7253L163.008 31.0853L149.344 26.936L140.379 37.9867L140.325 24.1413L137.536 23.24V25.8533C137.536 25.8533 131.984 26.168 128.427 30.0027C123.92 34.872 124.283 40.056 124.283 40.056V55.8427H118.016V40.1413C118.016 37.6613 118.304 32.4347 123.424 26.888C127.387 22.5947 133.392 20.7973 133.392 20.7973L141.499 23.3253L141.456 34.9573L148.987 25.5813L160.528 29.32L153.899 19.6293L162.965 8.45067V4.97333L151.2 19.496L155.072 25.2613L148.219 23.192L143.579 28.8667L143.531 21.704C143.531 21.704 137.808 19.8107 135.328 19.3147C136.891 18.8517 138.489 18.5199 140.107 18.3227C142.043 18.1413 143.531 18.1413 143.531 18.1413V15.7947C143.531 15.7947 138.347 15.768 132.757 17.6933C128.188 19.3211 124.044 21.9549 120.629 25.4C118.869 27.2027 118.016 29.3627 118.016 29.3627ZM108.816 13.816H114.949V55.8427H108.816V13.816Z" fill="white"/>
<path d="M100.389 55.832H106.565V33.6987C106.565 28.5094 104.443 23.3254 99.5307 18.4134C94.6187 13.496 87.7227 12.4187 84.3413 12.4187C80.9547 12.4187 75.232 13.7734 71.8933 16.3814C68.56 19 62.4267 24.0454 62.4267 34.9094C62.4267 44.0667 68.576 50.8507 73.3813 53.624C77.1573 55.8 80.5973 56.5574 84.9707 56.5574C88.0373 56.5574 88.5333 56.0987 88.5333 56.0987V49.7894C88.5333 49.7894 87.2213 50.2854 84.9227 50.2854C82.6293 50.2854 79.472 50.104 75.9093 47.7627C73.7183 46.3104 71.9264 44.3319 70.6975 42.0082C69.4686 39.6845 68.8419 37.0898 68.8747 34.4614C68.8747 28.0134 72.48 23.64 75.904 21.2987C79.3333 18.952 83.0293 18.6854 84.7413 18.6854C86.4587 18.6854 91.4613 19.2667 95.3813 23.192C99.3067 27.112 100.389 31.304 100.389 37.8V55.832ZM46.9493 37.8C46.9493 42.3974 47.2373 43.8427 48.4053 45.0107C49.7173 46.3227 50.432 47.0907 55.0347 47.0907H62.4267V41.224C62.4267 41.224 59.4933 41.1814 56.3893 41.1814C53.3653 41.1814 53.2747 40.3227 53.2747 38.1574V28.2427H62.4267V22.52H46.9493V37.8Z" fill="white"/>
<path d="M37.632 22.5147H43.8987V39.5547C43.8987 44.0667 45.1627 45.912 46.288 47.128C47.4133 48.3493 49.44 50.104 54.6293 50.104H62.4266V55.9174C62.4266 55.9174 55.8933 55.832 51.7013 55.832C48.992 55.832 44.2613 54.2533 41.1467 50.552C38.9286 47.8385 37.6903 44.4563 37.632 40.952V22.5147ZM46.9706 0.472008H53.2693V13.8587H62.4693V19.496H46.9706V0.472008ZM37.632 0.466675H43.9893V19.5387H37.632V0.466675ZM34.6133 28.2427V22.4667H16.3093C13.5146 22.4667 12.9013 23.7413 12.6986 24.408C11.9786 26.7973 16.0373 29.5013 19.328 31.9813C22.6187 34.4613 25.9306 36.9627 27.4453 38.4773C29.0666 40.0987 31.28 42.8667 29.968 46.136C28.528 49.7467 25.056 49.9707 22.2133 49.9707H4.77332V55.832H21.808C27.76 55.832 31.456 54.6107 34.3893 50.0613C36.9866 46.024 36.064 41.1547 34.7466 38.8773C32.9013 35.6773 30.1493 33.24 27.04 31.1707C24.6026 29.544 24 29.3627 24.1973 28.648C24.3306 28.152 26.128 28.232 26.128 28.232L34.6133 28.2427Z" fill="white"/>
<path d="M34.704 19.4694V13.736L16.0373 13.7307C10.7573 13.7307 4 17.4267 4 25.4107C4 33.3894 11.8933 37.0747 15.36 39.8374C15.8613 40.232 16.2133 41.2347 14.7307 41.2347H4.75733V47.0001H19.7333C25.328 47.0001 26.1867 46.6854 26.9867 44.9734C27.5573 43.7841 27.3973 42.5414 24.5547 39.9707C21.7173 37.4 15.7707 33.0267 14.1013 31.8107C12.432 30.5947 9.14133 27.6187 9.68 24.504C10.224 21.3947 12.112 19.5014 16.2187 19.5014C20.4747 19.5014 34.704 19.4747 34.704 19.4747" fill="white"/>
</g>
<g clip-path="url(#clip1_2_506)">
<path d="M278.238 31.3983L270.284 9.66014H263L275.159 39.465H281.264L293.365 9.66014H286.251L278.238 31.3983ZM317.794 24.5628C317.794 29.7773 314.319 34.0337 308.83 34.0337C303.564 34.0337 299.806 29.719 299.806 24.4527C299.806 19.2403 303.283 14.9835 308.717 14.9835C314.039 14.9835 317.794 19.2985 317.794 24.5628ZM324.572 24.4527C324.572 15.9363 317.907 9.04297 308.831 9.04297C299.753 9.04297 293.028 16.048 293.028 24.5632C293.028 33.027 299.697 39.9175 308.717 39.9175C317.851 39.9175 324.572 32.9122 324.572 24.4527ZM354.83 9.66014H347.769L340.094 31.6244L331.687 9.66014H324.46L336.788 39.243C335.666 41.8213 334.49 42.6621 332.587 42.6621C331.186 42.6621 329.838 42.2128 328.608 41.5394L326.31 46.5829C328.383 47.7032 330.455 48.3754 333.312 48.3754C338.076 48.3754 340.711 46.1363 343.063 40.0818L354.83 9.66014ZM378.417 30.5029V30.3912C378.417 25.0683 373.542 23.106 369.227 21.7628C365.753 20.6413 362.561 19.745 362.561 17.618V17.5064C362.561 15.7709 364.071 14.5361 366.706 14.5361C369.172 14.5361 372.197 15.6006 375.054 17.3357L377.744 12.5176C374.607 10.4464 370.573 9.1554 366.874 9.1554C360.993 9.1554 356.339 12.5742 356.339 18.1802V18.2882C356.339 23.9484 361.215 25.7405 365.584 26.9721C369.058 28.0382 372.197 28.8224 372.197 31.1196V31.2309C372.197 33.19 370.514 34.4236 367.602 34.4236C364.575 34.4236 361.105 33.19 357.909 30.7808L354.883 35.3757C358.581 38.2897 363.232 39.8027 367.435 39.8027C373.6 39.8035 378.417 36.722 378.417 30.5029Z" fill="white"/>
<path d="M386.356 10.9683C388.677 8.64832 388.677 8.64832 390.997 8.64832H415.125C416.971 8.64832 417.351 8.6527 418.591 9.82126L415.602 14.9915H382.334C382.333 14.9915 383.497 13.8321 386.356 10.9683Z" fill="white"/>
<path d="M421.448 12.6743C419.126 10.3539 418.591 9.82166 418.591 9.82166L402.542 37.5613L403.894 39.9012H405.757C408.077 39.9012 408.91 39.9012 410.397 37.5769C411.739 35.4877 422.714 16.2633 422.714 16.2633C423.473 14.698 422.606 13.8365 421.448 12.6743Z" fill="white"/>
<path d="M389.489 14.9915H382.333C382.472 15.1968 395.334 37.5757 395.334 37.5757C396.363 39.3945 398.061 39.9 400.15 39.9H403.894L389.489 14.9915Z" fill="white"/>
<path d="M382.333 14.9915C382.333 14.9915 389.489 14.9915 395.304 25.0448L389.489 14.9915H382.333Z" fill="white"/>
<path d="M403.894 39.9013L402.542 37.5613L407.618 28.7858C407.619 28.7858 402.47 37.6897 403.894 39.9013Z" fill="white"/>
<path d="M418.591 9.82117L415.602 14.9914H400.32C400.32 14.9914 413.477 14.9364 418.591 9.82117Z" fill="white"/>
</g>
</g>
<defs>
<filter id="filter0_d_2_506" x="0" y="0" width="427" height="65.024" filterUnits="userSpaceOnUse" color-interpolation-filters="sRGB">
<feFlood flood-opacity="0" result="BackgroundImageFix"/>
<feColorMatrix in="SourceAlpha" type="matrix" values="0 0 0 0 0 0 0 0 0 0 0 0 0 0 0 0 0 0 127 0" result="hardAlpha"/>
<feOffset dy="4"/>
<feGaussianBlur stdDeviation="2"/>
<feComposite in2="hardAlpha" operator="out"/>
<feColorMatrix type="matrix" values="0 0 0 0 0 0 0 0 0 0 0 0 0 0 0 0 0 0 0.25 0"/>
<feBlend mode="normal" in2="BackgroundImageFix" result="effect1_dropShadow_2_506"/>
<feBlend mode="normal" in="SourceGraphic" in2="effect1_dropShadow_2_506" result="shape"/>
</filter>
<clipPath id="clip0_2_506">
<rect width="160" height="57.024" fill="white" transform="translate(4)"/>
</clipPath>
<clipPath id="clip1_2_506">
<rect width="160" height="39.744" fill="white" transform="translate(263 8.64001)"/>
</clipPath>
</defs>
</svg>
